<svg width="15" height="15" viewBox="0 0 15 15" fill="none" xmlns="http://www.w3.org/2000/svg">
<path d="M0.500076 8.00037H8.29627L7.14609 9.14554C7.09922 9.19203 7.06202 9.24734 7.03663 9.30828C7.01124 9.36922 6.99817 9.43458 6.99817 9.5006C6.99817 9.56661 7.01124 9.63198 7.03663 9.69291C7.06202 9.75385 7.09922 9.80916 7.14609 9.85565C7.19258 9.90252 7.24789 9.93973 7.30883 9.96511C7.36977 9.9905 7.43513 10.0036 7.50115 10.0036C7.56716 10.0036 7.63252 9.9905 7.69346 9.96511C7.7544 9.93973 7.80971 9.90252 7.8562 9.85565L9.8565 7.85535C9.90203 7.80779 9.93772 7.75171 9.96152 7.69032C10.0115 7.56857 10.0115 7.43201 9.96152 7.31026C9.93772 7.24888 9.90203 7.1928 9.8565 7.14524L7.8562 5.14493C7.76203 5.05077 7.63432 4.99786 7.50115 4.99786C7.36797 4.99786 7.24026 5.05077 7.14609 5.14493C7.05192 5.2391 6.99902 5.36681 6.99902 5.49999C6.99902 5.63316 7.05192 5.76087 7.14609 5.85504L8.29627 7.00022H0.500076C0.367448 7.00022 0.240251 7.0529 0.146469 7.14668C0.0526864 7.24047 0 7.36766 0 7.50029C0 7.63292 0.0526864 7.76012 0.146469 7.8539C0.240251 7.94768 0.367448 8.00037 0.500076 8.00037Z" fill="black"/>
<path d="M0.500076 8.00037H8.29627L7.14609 9.14554C7.09922 9.19203 7.06202 9.24734 7.03663 9.30828C7.01124 9.36922 6.99817 9.43458 6.99817 9.5006C6.99817 9.56661 7.01124 9.63198 7.03663 9.69291C7.06202 9.75385 7.09922 9.80916 7.14609 9.85565C7.19258 9.90252 7.24789 9.93973 7.30883 9.96511C7.36977 9.9905 7.43513 10.0036 7.50115 10.0036C7.56716 10.0036 7.63252 9.9905 7.69346 9.96511C7.7544 9.93973 7.80971 9.90252 7.8562 9.85565L9.8565 7.85535C9.90203 7.80779 9.93772 7.75171 9.96152 7.69032C10.0115 7.56857 10.0115 7.43201 9.96152 7.31026C9.93772 7.24888 9.90203 7.1928 9.8565 7.14524L7.8562 5.14493C7.76203 5.05077 7.63432 4.99786 7.50115 4.99786C7.36797 4.99786 7.24026 5.05077 7.14609 5.14493C7.05192 5.2391 6.99902 5.36681 6.99902 5.49999C6.99902 5.63316 7.05192 5.76087 7.14609 5.85504L8.29627 7.00022H0.500076C0.367448 7.00022 0.240251 7.0529 0.146469 7.14668C0.0526864 7.24047 0 7.36766 0 7.50029C0 7.63292 0.0526864 7.76012 0.146469 7.8539C0.240251 7.94768 0.367448 8.00037 0.500076 8.00037Z" fill="url(#paint0_linear_332_1226)"/>
<path d="M0.500076 8.00037H8.29627L7.14609 9.14554C7.09922 9.19203 7.06202 9.24734 7.03663 9.30828C7.01124 9.36922 6.99817 9.43458 6.99817 9.5006C6.99817 9.56661 7.01124 9.63198 7.03663 9.69291C7.06202 9.75385 7.09922 9.80916 7.14609 9.85565C7.19258 9.90252 7.24789 9.93973 7.30883 9.96511C7.36977 9.9905 7.43513 10.0036 7.50115 10.0036C7.56716 10.0036 7.63252 9.9905 7.69346 9.96511C7.7544 9.93973 7.80971 9.90252 7.8562 9.85565L9.8565 7.85535C9.90203 7.80779 9.93772 7.75171 9.96152 7.69032C10.0115 7.56857 10.0115 7.43201 9.96152 7.31026C9.93772 7.24888 9.90203 7.1928 9.8565 7.14524L7.8562 5.14493C7.76203 5.05077 7.63432 4.99786 7.50115 4.99786C7.36797 4.99786 7.24026 5.05077 7.14609 5.14493C7.05192 5.2391 6.99902 5.36681 6.99902 5.49999C6.99902 5.63316 7.05192 5.76087 7.14609 5.85504L8.29627 7.00022H0.500076C0.367448 7.00022 0.240251 7.0529 0.146469 7.14668C0.0526864 7.24047 0 7.36766 0 7.50029C0 7.63292 0.0526864 7.76012 0.146469 7.8539C0.240251 7.94768 0.367448 8.00037 0.500076 8.00037Z" fill="#2EB897"/>
<path d="M7.50111 -0.00115967C5.88456 0.00520912 4.31279 0.530532 3.01728 1.49744C1.72177 2.46434 0.771002 3.82172 0.305009 5.36966C0.285099 5.43334 0.278135 5.50037 0.284526 5.56678C0.290918 5.6332 0.310536 5.69767 0.342225 5.75638C0.373914 5.8151 0.417033 5.86688 0.469042 5.90868C0.521052 5.95048 0.5809 5.98144 0.645061 5.99976C0.772384 6.03689 0.909245 6.02193 1.02554 5.95816C1.14183 5.89438 1.22802 5.78703 1.26516 5.6597C1.70871 4.16133 2.67713 2.87286 3.9931 2.0302C5.30908 1.18755 6.88454 0.847096 8.43104 1.07119C9.97753 1.29528 11.3916 2.06892 12.4142 3.25045C13.4369 4.43198 13.9998 5.94234 13.9998 7.50499C13.9998 9.06763 13.4369 10.578 12.4142 11.7595C11.3916 12.9411 9.97753 13.7147 8.43104 13.9388C6.88454 14.1629 5.30908 13.8224 3.9931 12.9798C2.67713 12.1371 1.70871 10.8486 1.26516 9.35027C1.24783 9.28632 1.21797 9.22646 1.17731 9.17415C1.13666 9.12184 1.08601 9.07813 1.02832 9.04556C0.970622 9.01299 0.907032 8.99221 0.841239 8.98443C0.775446 8.97664 0.708762 8.98201 0.645061 9.00021C0.581461 9.01857 0.522139 9.04937 0.470533 9.09082C0.418927 9.13228 0.376065 9.18357 0.344432 9.24171C0.3128 9.29986 0.293027 9.36371 0.286259 9.42956C0.279492 9.49541 0.285865 9.56194 0.305009 9.62531C0.699365 10.9601 1.45732 12.1589 2.4941 13.0875C3.53087 14.0161 4.80556 14.638 6.17558 14.8835C7.5456 15.129 8.95691 14.9885 10.2516 14.4777C11.5464 13.9669 12.6734 13.106 13.5068 11.9912C14.3401 10.8764 14.8469 9.55171 14.9703 8.16535C15.0938 6.77899 14.8291 5.38562 14.2059 4.14111C13.5826 2.8966 12.6254 1.85004 11.4413 1.11849C10.2572 0.386948 8.89295 -0.000725613 7.50111 -0.00115967Z" fill="black"/>
<path d="M7.50111 -0.00115967C5.88456 0.00520912 4.31279 0.530532 3.01728 1.49744C1.72177 2.46434 0.771002 3.82172 0.305009 5.36966C0.285099 5.43334 0.278135 5.50037 0.284526 5.56678C0.290918 5.6332 0.310536 5.69767 0.342225 5.75638C0.373914 5.8151 0.417033 5.86688 0.469042 5.90868C0.521052 5.95048 0.5809 5.98144 0.645061 5.99976C0.772384 6.03689 0.909245 6.02193 1.02554 5.95816C1.14183 5.89438 1.22802 5.78703 1.26516 5.6597C1.70871 4.16133 2.67713 2.87286 3.9931 2.0302C5.30908 1.18755 6.88454 0.847096 8.43104 1.07119C9.97753 1.29528 11.3916 2.06892 12.4142 3.25045C13.4369 4.43198 13.9998 5.94234 13.9998 7.50499C13.9998 9.06763 13.4369 10.578 12.4142 11.7595C11.3916 12.9411 9.97753 13.7147 8.43104 13.9388C6.88454 14.1629 5.30908 13.8224 3.9931 12.9798C2.67713 12.1371 1.70871 10.8486 1.26516 9.35027C1.24783 9.28632 1.21797 9.22646 1.17731 9.17415C1.13666 9.12184 1.08601 9.07813 1.02832 9.04556C0.970622 9.01299 0.907032 8.99221 0.841239 8.98443C0.775446 8.97664 0.708762 8.98201 0.645061 9.00021C0.581461 9.01857 0.522139 9.04937 0.470533 9.09082C0.418927 9.13228 0.376065 9.18357 0.344432 9.24171C0.3128 9.29986 0.293027 9.36371 0.286259 9.42956C0.279492 9.49541 0.285865 9.56194 0.305009 9.62531C0.699365 10.9601 1.45732 12.1589 2.4941 13.0875C3.53087 14.0161 4.80556 14.638 6.17558 14.8835C7.5456 15.129 8.95691 14.9885 10.2516 14.4777C11.5464 13.9669 12.6734 13.106 13.5068 11.9912C14.3401 10.8764 14.8469 9.55171 14.9703 8.16535C15.0938 6.77899 14.8291 5.38562 14.2059 4.14111C13.5826 2.8966 12.6254 1.85004 11.4413 1.11849C10.2572 0.386948 8.89295 -0.000725613 7.50111 -0.00115967Z" fill="url(#paint1_linear_332_1226)"/>
<path d="M7.50111 -0.00115967C5.88456 0.00520912 4.31279 0.530532 3.01728 1.49744C1.72177 2.46434 0.771002 3.82172 0.305009 5.36966C0.285099 5.43334 0.278135 5.50037 0.284526 5.56678C0.290918 5.6332 0.310536 5.69767 0.342225 5.75638C0.373914 5.8151 0.417033 5.86688 0.469042 5.90868C0.521052 5.95048 0.5809 5.98144 0.645061 5.99976C0.772384 6.03689 0.909245 6.02193 1.02554 5.95816C1.14183 5.89438 1.22802 5.78703 1.26516 5.6597C1.70871 4.16133 2.67713 2.87286 3.9931 2.0302C5.30908 1.18755 6.88454 0.847096 8.43104 1.07119C9.97753 1.29528 11.3916 2.06892 12.4142 3.25045C13.4369 4.43198 13.9998 5.94234 13.9998 7.50499C13.9998 9.06763 13.4369 10.578 12.4142 11.7595C11.3916 12.9411 9.97753 13.7147 8.43104 13.9388C6.88454 14.1629 5.30908 13.8224 3.9931 12.9798C2.67713 12.1371 1.70871 10.8486 1.26516 9.35027C1.24783 9.28632 1.21797 9.22646 1.17731 9.17415C1.13666 9.12184 1.08601 9.07813 1.02832 9.04556C0.970622 9.01299 0.907032 8.99221 0.841239 8.98443C0.775446 8.97664 0.708762 8.98201 0.645061 9.00021C0.581461 9.01857 0.522139 9.04937 0.470533 9.09082C0.418927 9.13228 0.376065 9.18357 0.344432 9.24171C0.3128 9.29986 0.293027 9.36371 0.286259 9.42956C0.279492 9.49541 0.285865 9.56194 0.305009 9.62531C0.699365 10.9601 1.45732 12.1589 2.4941 13.0875C3.53087 14.0161 4.80556 14.638 6.17558 14.8835C7.5456 15.129 8.95691 14.9885 10.2516 14.4777C11.5464 13.9669 12.6734 13.106 13.5068 11.9912C14.3401 10.8764 14.8469 9.55171 14.9703 8.16535C15.0938 6.77899 14.8291 5.38562 14.2059 4.14111C13.5826 2.8966 12.6254 1.85004 11.4413 1.11849C10.2572 0.386948 8.89295 -0.000725613 7.50111 -0.00115967Z" fill="#2EB897"/>
<defs>
<linearGradient id="paint0_linear_332_1226" x1="0.583601" y1="4.99787" x2="17.3601" y2="5.8544" gradientUnits="userSpaceOnUse">
<stop stop-color="#11AE88"/>
<stop offset="1" stop-color="#2A84EE"/>
</linearGradient>
<linearGradient id="paint1_linear_332_1226" x1="1.14124" y1="-0.0011469" x2="25.8836" y2="0.619252" gradientUnits="userSpaceOnUse">
<stop stop-color="#11AE88"/>
<stop offset="1" stop-color="#2A84EE"/>
</linearGradient>
</defs>
</svg>
